<svg xmlns="http://www.w3.org/2000/svg" width="20" height="20" fill="none" viewBox="0 0 20 20"><path stroke="#404BD9" stroke-linecap="round" stroke-linejoin="round" stroke-width="1.667" d="M6.667 19.167a1.667 1.667 0 1 0 0-3.334 1.667 1.667 0 0 0 0 3.334m10 0a1.667 1.667 0 1 0 0-3.334 1.667 1.667 0 0 0 0 3.334" clip-rule="evenodd"/><path stroke="#404BD9" stroke-linecap="round" stroke-linejoin="round" stroke-width="1.667" d="M4.725 5h14.442l-1.4 6.992a1.67 1.67 0 0 1-1.667 1.341H7.292a1.667 1.667 0 0 1-1.667-1.45l-1.266-9.6a1.67 1.67 0 0 0-1.65-1.45H.833"/></svg>