<svg xmlns="http://www.w3.org/2000/svg" width="24" height="24" fill="none" viewBox="0 0 24 24"><path fill="#fff" d="m12.042 2 .319.005a9.9 9.9 0 0 1 6.725 2.901l.222.228A9.82 9.82 0 0 1 22 11.918l-.004.264c-.143 5.342-4.555 9.646-9.954 9.646h-.004l-.357-.006a10 10 0 0 1-4.402-1.2L2 22l1.413-5.135-.169-.304a9.86 9.86 0 0 1-1.16-4.651C2.085 6.446 6.552 2 12.041 2m.003 1.674-.244.003c-4.453.13-8.034 3.773-8.036 8.234l.006.31a8.2 8.2 0 0 0 1.26 4.073l.196.312-.836 3.04 3.132-.818.303.178.275.156a8.3 8.3 0 0 0 3.938.993h.003l.243-.004c4.45-.129 8.032-3.773 8.034-8.234l-.005-.286a8.16 8.16 0 0 0-2.418-5.541l-.206-.2a8.24 8.24 0 0 0-5.645-2.216M8.592 7.28c.167 0 .334 0 .48.006.179.007.376.015.564.423.222.485.71 1.698.772 1.82.063.124.104.267.02.43-.083.164-.124.266-.25.41-.125.143-.263.319-.375.429-.126.122-.256.255-.11.5.146.246.649 1.049 1.393 1.698.958.836 1.764 1.095 2.015 1.218.25.122.397.102.543-.062s.626-.716.793-.961c.167-.246.334-.205.564-.123s1.461.675 1.711.798c.251.123.418.184.48.286.063.103.063.593-.145 1.166-.21.572-1.232 1.125-1.692 1.166s-.89.203-3.006-.614c-2.546-.983-4.154-3.538-4.28-3.702-.124-.163-1.022-1.33-1.022-2.536 0-1.207.647-1.8.877-2.045a.93.93 0 0 1 .668-.307"/></svg>